<?xml version="1.0" standalone="no"?>
<!DOCTYPE svg PUBLIC "-//W3C//DTD SVG 20010904//EN"
 "http://www.w3.org/TR/2001/REC-SVG-20010904/DTD/svg10.dtd">
<svg version="1.0" xmlns="http://www.w3.org/2000/svg"
 width="700.000000pt" height="700.000000pt" viewBox="0 0 700.000000 700.000000"
 preserveAspectRatio="xMidYMid meet">
<metadata>
Created by potrace 1.11, written by Peter Selinger 2001-2013
</metadata>
<g transform="translate(0.000000,700.000000) scale(0.100000,-0.100000)"
fill="#000000" stroke="none">
<path d="M3260 6984 c-19 -2 -82 -9 -140 -15 -1035 -110 -1964 -681 -2544
-1564 -293 -445 -462 -909 -543 -1485 -24 -177 -24 -663 0 -840 81 -576 250
-1040 543 -1485 534 -813 1373 -1370 2314 -1534 236 -41 300 -46 610 -46 310
0 374 5 610 46 1355 237 2471 1288 2785 2624 71 304 89 468 89 815 0 299 -8
397 -50 630 -187 1024 -823 1909 -1742 2424 -380 213 -792 347 -1267 411 -113
16 -578 29 -665 19z m1270 -1154 c167 -48 352 -169 445 -293 127 -168 187
-370 186 -628 l0 -147 42 10 c68 16 200 12 259 -7 229 -75 378 -293 378 -551
0 -105 -17 -173 -64 -269 -72 -146 -242 -305 -425 -398 l-84 -42 -1871 0
-1871 0 -41 22 c-76 40 -104 73 -158 182 -132 265 -150 452 -61 640 114 239
417 366 826 347 l136 -7 6 68 c14 168 99 338 236 473 98 97 172 141 287 170
196 50 412 1 678 -155 26 -15 48 -26 49 -24 2 2 29 48 60 101 178 303 389 477
632 524 95 18 259 11 355 -16z m-1603 -2925 l178 -405 395 0 396 0 124 396
c69 217 128 399 131 405 3 6 87 8 211 7 l206 -3 -324 -1060 c-178 -583 -324
-1065 -324 -1071 0 -6 26 -16 58 -23 97 -21 299 -90 416 -142 235 -105 500
-283 645 -432 l44 -45 -101 -51 c-324 -163 -667 -265 -1082 -323 -129 -18
-671 -18 -800 0 -341 48 -611 119 -899 238 -129 54 -362 174 -356 184 3 5 45
42 93 83 272 229 609 401 952 486 173 42 263 54 470 58 l205 5 123 442 c67
242 123 444 122 449 0 4 -184 7 -408 7 -460 0 -478 2 -532 68 -17 21 -123 254
-262 575 -128 297 -234 544 -236 549 -2 4 82 8 186 8 l190 0 179 -405z"/>
</g>
</svg>
