<?xml version="1.0" encoding="UTF-8" standalone="no"?>
<svg
   xmlns:dc="http://purl.org/dc/elements/1.1/"
   xmlns:cc="http://creativecommons.org/ns#"
   xmlns:rdf="http://www.w3.org/1999/02/22-rdf-syntax-ns#"
   xmlns:svg="http://www.w3.org/2000/svg"
   xmlns="http://www.w3.org/2000/svg"
   xmlns:sodipodi="http://sodipodi.sourceforge.net/DTD/sodipodi-0.dtd"
   xmlns:inkscape="http://www.inkscape.org/namespaces/inkscape"
   width="828.52643"
   height="828.52643"
   viewBox="0 0 662821.14 662821.14"
   version="1.1"
   xml:space="preserve"
   style="clip-rule:evenodd;fill-rule:evenodd;stroke-linejoin:round;stroke-miterlimit:1.41420996"
   id="svg10"
   sodipodi:docname="CD4ST_logo.svg"
   inkscape:version="0.92.3 (2405546, 2018-03-11)"><metadata
   id="metadata16"><rdf:RDF><cc:Work
       rdf:about=""><dc:format>image/svg+xml</dc:format><dc:type
         rdf:resource="http://purl.org/dc/dcmitype/StillImage" /><dc:title /><dc:title /></cc:Work></rdf:RDF></metadata><defs
   id="defs14"><clipPath
     clipPathUnits="userSpaceOnUse"
     id="clipPath846"><path
       style="opacity:1;vector-effect:none;fill:#fffff7;fill-opacity:1;stroke:none;stroke-width:0;stroke-linecap:butt;stroke-linejoin:miter;stroke-miterlimit:4;stroke-dasharray:none;stroke-dashoffset:0;stroke-opacity:1"
       d="m 393678.04,619259.47 c -30771.15,2510.01 -58832.79,10394.61 -85016.71,23887.51 -24548.53,12650.18 -42940.6,26511.41 -62017.89,46740.06 -12803.47,13576.18 -24287.93,28884.55 -32119.59,42814.19 l -1934.06,3439.95 h 196138.68 196138.7 l -1934.08,-3439.95 C 589053.5,708014.48 565712.81,681661.04 541732.31,663600.85 511113.66,640541.32 475527.8,625975.01 436729.3,620620.09 c -7730.27,-1066.91 -35782.8,-1953.51 -43051.26,-1360.62 z"
       inkscape:connector-curvature="0"
       id="path848" /></clipPath></defs><sodipodi:namedview
   pagecolor="#ffffff"
   bordercolor="#666666"
   borderopacity="1"
   objecttolerance="10"
   gridtolerance="10"
   guidetolerance="10"
   inkscape:pageopacity="0"
   inkscape:pageshadow="2"
   inkscape:window-width="1210"
   inkscape:window-height="960"
   id="namedview12"
   showgrid="false"
   inkscape:zoom="0.7229703"
   inkscape:cx="414.26321"
   inkscape:cy="414.26321"
   inkscape:window-x="70"
   inkscape:window-y="27"
   inkscape:window-maximized="1"
   inkscape:current-layer="layer2"
   units="px"
   fit-margin-top="1"
   fit-margin-left="1"
   fit-margin-right="1"
   fit-margin-bottom="1"
   inkscape:showpageshadow="false" />
    
    
<g
   inkscape:groupmode="layer"
   id="layer2"
   inkscape:label="Kör"
   style="display:inline;opacity:1"
   transform="translate(-82948.469,-71234.5)"><circle
     style="clip-rule:evenodd;display:inline;fill:#000000;fill-opacity:1;fill-rule:evenodd;stroke:#000000;stroke-width:12000;stroke-linejoin:round;stroke-miterlimit:4;stroke-dasharray:none;stroke-opacity:1"
     id="path832"
     cx="414359.03"
     cy="402645.06"
     r="324610.56" /></g><g
   style="display:inline;opacity:1"
   inkscape:label="Kör copy"
   id="g844"
   inkscape:groupmode="layer"
   transform="translate(-82948.469,-71234.5)"><circle
     r="324610.56"
     cy="402645.06"
     cx="414359.03"
     id="circle842"
     style="clip-rule:evenodd;display:inline;fill:#ffffff;fill-opacity:1;fill-rule:evenodd;stroke:#000000;stroke-width:12000;stroke-linejoin:round;stroke-miterlimit:4;stroke-dasharray:none;stroke-opacity:1"
     clip-path="url(#clipPath846)" /></g><g
   inkscape:groupmode="layer"
   id="layer8"
   inkscape:label="Törzs_éles"
   style="display:inline"
   transform="translate(-82948.469,-71234.5)"><g
     style="clip-rule:evenodd;display:inline;opacity:1;fill:#ffffff;fill-opacity:1;fill-rule:evenodd;stroke-linejoin:round;stroke-miterlimit:1.41420996"
     transform="matrix(4381.8064,0,0,4381.8064,-1421109,-1437187.3)"
     id="g4"><path
       inkscape:connector-curvature="0"
       d="m 394.40498,423.91999 h 8.2 l 7.8,17.6 h 17 l 5.6,-17.6 h 9 c 0,0 -11.686,38.329 -14.429,47.326 -0.339,1.113 -1.367,1.874 -2.53,1.874 -2.311,0 -5.841,0 -5.841,0 l 6.507,-23.2 c 0,0 -11.712,0 -17.259,0 -1.728,0 -3.291,-1.029 -3.975,-2.616 -2.842,-6.596 -10.073,-23.384 -10.073,-23.384 z"
       id="path2"
       style="fill:#ffffff;fill-opacity:1" /></g></g><g
   inkscape:groupmode="layer"
   id="layer5"
   inkscape:label="BottomArea"
   style="display:inline"
   transform="translate(-82948.469,-71234.5)"><path
     style="clip-rule:evenodd;display:inline;fill:#000000;fill-opacity:0;fill-rule:evenodd;stroke:#000000;stroke-width:2400;stroke-linecap:butt;stroke-linejoin:miter;stroke-miterlimit:1.41420996;stroke-dasharray:none;stroke-opacity:0"
     d="M 134554.59,560510.14 H 694539.13"
     id="path858"
     inkscape:connector-curvature="0" /></g><g
   inkscape:groupmode="layer"
   id="layer4"
   inkscape:label="Text"
   style="display:none"
   transform="translate(-82948.469,-71234.5)"><g
     aria-label="CLOUDFOREST"
     transform="matrix(583.2,0,0,583.2,111111.19,121932.16)"
     style="font-style:normal;font-weight:normal;font-size:40px;line-height:1.25;font-family:sans-serif;letter-spacing:0px;word-spacing:0px;clip-rule:evenodd;display:inline;fill:#000000;fill-opacity:1;fill-rule:evenodd;stroke:none;stroke-linejoin:round;stroke-miterlimit:1.41420996"
     id="flowRoot4648"><title
       id="title4688">Cloud4est</title><path
       d="m 187.28125,860.74084 c -10.5,0 -22.7,-5.9 -22.7,-22.7 0,-16.8 12.2,-22.7 22.7,-22.7 6.9,0 13,2.4 17,6.7 1.2,1.3 2.8,2 4.5,2 1.5,0 3,-0.6 4.2,-1.7 2.5,-2.3 2.6,-6.2 0.3,-8.7 -6.4,-6.8 -15.6,-10.6 -26,-10.6 -20.5,0 -35,14.4 -35,35 0,20.6 14.5,35 35,35 10.4,0 19.6,-3.8 26,-10.6 2.3,-2.5 2.2,-6.4 -0.3,-8.7 -1.2,-1.1 -2.7,-1.7 -4.2,-1.7 -1.7,0 -3.3,0.7 -4.5,2 -4.1,4.3 -10.2,6.7 -17,6.7 z"
       style="font-style:normal;font-variant:normal;font-weight:normal;font-stretch:normal;font-size:100px;font-family:'Comodo Free';-inkscape-font-specification:'Comodo Free';text-align:center;text-anchor:middle;fill:#000000;fill-opacity:1"
       id="path4665"
       inkscape:connector-curvature="0" /><path
       d="m 236.11562,803.04084 c -3.4,0 -6.2,2.8 -6.2,6.2 v 57.7 c 0,3.4 2.7,6.2 6.1,6.2 h 30.10001 c 3.39999,0 6.09999,-2.7 6.09999,-6.1 0,-3.4 -2.8,-6.1 -6.2,-6.1 h -20.2 c -2.1,0 -3.8,-1.7 -3.8,-3.8 v -47.8 c 0,-3.4 -2.5,-6.3 -5.9,-6.3 z"
       style="font-style:normal;font-variant:normal;font-weight:normal;font-stretch:normal;font-size:100px;font-family:'Comodo Free';-inkscape-font-specification:'Comodo Free';text-align:center;text-anchor:middle;fill:#000000;fill-opacity:1"
       id="path4667"
       inkscape:connector-curvature="0" /><path
       d="m 315.01562,860.74084 c -10.5,0 -22.7,-5.9 -22.7,-22.7 0,-16.8 12.2,-22.7 22.7,-22.7 10.5,0 22.7,5.9 22.7,22.7 0,16.8 -12.2,22.7 -22.7,22.7 z m 0,-57.7 c -20.5,0 -35,14.4 -35,35 0,20.6 14.5,35 35,35 20.5,0 35,-14.4 35,-35 0,-20.6 -14.5,-35 -35,-35 z"
       style="font-style:normal;font-variant:normal;font-weight:normal;font-stretch:normal;font-size:100px;font-family:'Comodo Free';-inkscape-font-specification:'Comodo Free';text-align:center;text-anchor:middle;fill:#000000;fill-opacity:1"
       id="path4669"
       inkscape:connector-curvature="0" /><path
       d="m 406.01406,847.34084 c 0,7.4 -6,13.4 -13.4,13.4 h -3.5 c -7.4,0 -13.4,-6 -13.4,-13.4 v -38.2 c 0,-3.4 -2.8,-6.1 -6.2,-6.1 -3.4,0 -6.2,2.8 -6.2,6.2 v 38.2 c 0,14.2 11.5,25.7 25.7,25.7 h 3.5 c 14.2,0 25.7,-11.5 25.7,-25.7 v -38.2 c 0,-3.4 -2.8,-6.1 -6.2,-6.1 -3.4,0 -6.2,2.8 -6.2,6.2 z"
       style="font-style:normal;font-variant:normal;font-weight:normal;font-stretch:normal;font-size:100px;font-family:'Comodo Free';-inkscape-font-specification:'Comodo Free';text-align:center;text-anchor:middle;fill:#000000;fill-opacity:1"
       id="path4671"
       inkscape:connector-curvature="0" /><path
       d="m 449.33594,860.84084 c -2.1,0 -3.8,-1.7 -3.8,-3.8 v -37.9 c 0,-2.1 1.7,-3.8 3.8,-3.8 h 7.2 c 10.5,0 22.7,5.9 22.7,22.7 0,16.8 -12.2,22.8 -22.7,22.8 z m 7.2,-57.8 h -17 c -3.5,0 -6.3,2.8 -6.3,6.3 v 57.5 c 0,3.5 2.8,6.3 6.3,6.3 h 17 c 20.5,0 35,-14.4 35,-35 0,-20.6 -14.4,-35.1 -35,-35.1 z"
       style="font-style:normal;font-variant:normal;font-weight:normal;font-stretch:normal;font-size:100px;font-family:'Comodo Free';-inkscape-font-specification:'Comodo Free';text-align:center;text-anchor:middle;fill:#000000;fill-opacity:1"
       id="path4673"
       inkscape:connector-curvature="0" /><path
       d="m 511.70156,873.04084 c 3.4,0 6.1,-2.7 6.1,-6.1 v -20.8 c 0,-2.1 1.7,-3.8 3.8,-3.8 h 13.7 c 3.4,0 6.1,-2.7 6.1,-6.1 0,-3.4 -2.8,-6.1 -6.2,-6.1 h -13.7 c -2.1,0 -3.8,-1.7 -3.8,-3.8 v -7.2 c 0,-2.1 1.7,-3.8 3.8,-3.8 h 19.1 c 3.4,0 6.1,-2.7 6.1,-6.1 0,-3.4 -2.8,-6.1 -6.2,-6.1 h -29 c -3.4,0 -6.2,2.8 -6.2,6.2 v 57.7 c 0,3.4 3,6 6.4,6 z"
       style="font-style:normal;font-variant:normal;font-weight:normal;font-stretch:normal;font-size:100px;font-family:'Comodo Free';-inkscape-font-specification:'Comodo Free';text-align:center;text-anchor:middle;fill:#000000;fill-opacity:1"
       id="path4675"
       inkscape:connector-curvature="0" /><path
       d="m 591.77344,860.74084 c -10.5,0 -22.7,-5.9 -22.7,-22.7 0,-16.8 12.2,-22.7 22.7,-22.7 10.5,0 22.7,5.9 22.7,22.7 0,16.8 -12.2,22.7 -22.7,22.7 z m 0,-57.7 c -20.5,0 -35,14.4 -35,35 0,20.6 14.5,35 35,35 20.5,0 35,-14.4 35,-35 0,-20.6 -14.5,-35 -35,-35 z"
       style="font-style:normal;font-variant:normal;font-weight:normal;font-stretch:normal;font-size:100px;font-family:'Comodo Free';-inkscape-font-specification:'Comodo Free';text-align:center;text-anchor:middle;fill:#000000;fill-opacity:1"
       id="path4677"
       inkscape:connector-curvature="0" /><path
       d="m 652.85781,819.14084 c 0,-2.1 1.7,-3.8 3.8,-3.8 h 6.8 c 1.5,0 9,0.4 9,8.4 0,8 -7.5,8.4 -9,8.4 h -6.8 c -2.1,0 -3.8,-1.7 -3.8,-3.8 z m 25.5,20 c 4.3,-3.9 6.6,-9.2 6.6,-15.4 0,-12.2 -9.3,-20.8 -21.3,-20.8 h -16.7 c -3.4,0 -6.2,2.8 -6.2,6.2 v 57.7 c 0,3.4 2.7,6.2 6.1,6.2 3.4,0 6.1,-2.7 6.1,-6.1 v -19.2 c 0,-1.8 1.4,-3.2 3.2,-3.2 1.4,0 2.7,0.8 3.5,2 l 14.4,23.6 c 1.1,1.8 3.1,2.9 5.2,2.9 4.8,0 7.7,-5.2 5.2,-9.3 l -11.9,-19.4 c -0.4,-0.7 -0.1,-1.6 0.6,-1.9 1.8,-0.8 3.5,-1.9 5,-3.2 z"
       style="font-style:normal;font-variant:normal;font-weight:normal;font-stretch:normal;font-size:100px;font-family:'Comodo Free';-inkscape-font-specification:'Comodo Free';text-align:center;text-anchor:middle;fill:#000000;fill-opacity:1"
       id="path4679"
       inkscape:connector-curvature="0" /><path
       d="m 735.81875,873.04084 c 3.4,0 6.1,-2.7 6.1,-6.1 0,-3.4 -2.8,-6.1 -6.2,-6.1 h -19.1 c -2.1,0 -3.8,-1.7 -3.8,-3.8 v -10.9 c 0,-2.1 1.7,-3.8 3.8,-3.8 h 13.7 c 3.4,0 6.1,-2.7 6.1,-6.1 0,-3.4 -2.8,-6.1 -6.2,-6.1 h -13.7 c -2.1,0 -3.8,-1.7 -3.8,-3.8 v -7.2 c 0,-2.1 1.7,-3.8 3.8,-3.8 h 19.1 c 3.4,0 6.1,-2.7 6.1,-6.1 0,-3.4 -2.8,-6.1 -6.2,-6.1 h -29 c -3.4,0 -6.2,2.8 -6.2,6.2 v 57.7 c 0,3.4 3.1,6 6.5,6 z"
       style="font-style:normal;font-variant:normal;font-weight:normal;font-stretch:normal;font-size:100px;font-family:'Comodo Free';-inkscape-font-specification:'Comodo Free';text-align:center;text-anchor:middle;fill:#000000;fill-opacity:1"
       id="path4681"
       inkscape:connector-curvature="0" /><path
       d="m 799.06875,837.04084 c -4.3,-2.6 -9.5,-3.8 -14.6,-5 -11.4,-2.6 -13.9,-4.1 -13.9,-8.3 v -0.2 c 0,-4.8 5,-8.3 11.9,-8.3 5.6,0 7.5,1.4 9.3,3.1 1.2,1.2 2.8,1.8 4.4,1.8 1.5,0 3.1,-0.6 4.3,-1.8 2.4,-2.4 2.3,-6.3 -0.1,-8.7 -4.8,-4.7 -10.2,-6.7 -18,-6.7 -12.1,0 -24.1,7.2 -24.1,20.5 v 0.2 c 0,14.1 12.2,17.5 23.4,20.2 11.5,2.7 14,4.2 14,8.5 0,7 -8,8.2 -13.4,8.2 -10.9,0 -13.6,-3 -14.8,-4.3 -1.2,-1.3 -2.9,-2 -4.6,-2 -1.4,0 -2.9,0.5 -4.1,1.6 -2.5,2.3 -2.7,6.2 -0.4,8.7 5.2,5.7 12.6,8.3 23.9,8.3 18.8,0 25.5,-11 25.5,-20.5 0,-6.7 -3.2,-11.9 -7.7,-14.7 z"
       style="font-style:normal;font-variant:normal;font-weight:normal;font-stretch:normal;font-size:100px;font-family:'Comodo Free';-inkscape-font-specification:'Comodo Free';text-align:center;text-anchor:middle;fill:#000000;fill-opacity:1"
       id="path4683"
       inkscape:connector-curvature="0" /><path
       d="m 834.92969,815.34084 c 2.1,0 3.8,1.7 3.8,3.8 v 47.8 c 0,3.4 2.7,6.2 6.1,6.2 3.4,0 6.1,-2.7 6.1,-6.1 v -47.8 c 0,-2.1 1.7,-3.8 3.8,-3.8 h 11.9 c 3.4,0 6.1,-2.7 6.1,-6.1 0,-3.4 -2.8,-6.1 -6.2,-6.1 h -43.6 c -3.4,0 -6.2,2.8 -6.2,6.2 0,3.4 2.9,5.9 6.3,5.9 z"
       style="font-style:normal;font-variant:normal;font-weight:normal;font-stretch:normal;font-size:100px;font-family:'Comodo Free';-inkscape-font-specification:'Comodo Free';text-align:center;text-anchor:middle;fill:#000000;fill-opacity:1"
       id="path4685"
       inkscape:connector-curvature="0" /></g></g><g
   inkscape:groupmode="layer"
   id="layer3"
   inkscape:label="Cloud"
   style="display:inline"
   transform="translate(-82948.469,747165.5)"><g
     style="clip-rule:evenodd;fill:#ffffff;fill-opacity:1;fill-rule:evenodd;stroke:none;stroke-linejoin:round;stroke-miterlimit:1.41420996"
     transform="matrix(487.99499,0,0,487.99499,221885.93,-617777.89)"
     id="g8">
        <path
   d="M 726.561,413.161 H 23.037 c -5.809,-0.382 -7.336,-0.195 -12.995,-1.718 -8.475,-2.281 -16.293,-6.819 -22.478,-13.046 -4.543,-4.573 -5.234,-5.643 -8.96,-12.225 -19.92,-35.358 -35.148,-75.841 -25.877,-116.137 6.67,-28.996 27.234,-53.775 53.972,-67.964 32.962,-17.492 71.545,-21.098 108.563,-20.568 10.657,0.153 21.306,0.719 31.921,1.59 l 0.465,0.039 c -0.003,-0.493 -0.003,-0.985 -0.002,-1.477 0.246,-46.932 26.258,-91.877 64.756,-119.954 20.705,-15.099 46.824,-21.838 72.686,-20.403 37.679,2.089 73.284,18.972 105.762,39.724 0,0 2.79,-5.223 5.199,-9.644 21.95,-40.286 50.538,-78.125 91.622,-99.648 35.242,-18.462 77.878,-20.375 116.162,-7.119 26.463,9.163 51.002,24.385 69.699,45.19 22.818,25.39 36.239,58.427 41.346,92.459 3.236,21.574 3.409,43.512 1.736,65.28 l -0.111,1.39 c 10.7,-3.03 21.684,-4.692 32.874,-4.58 24.785,0.4 49.154,10.867 66.56,28.622 33.194,33.859 44.036,87.81 21.811,132.482 -17.526,35.228 -49.937,61.458 -83.02,79.41 -2.038,1.106 -4.094,2.18 -6.176,3.202 l -0.181,0.088 c -4.617,1.924 -5.723,2.614 -10.621,3.739 -4.898,1.125 -6.195,0.986 -11.189,1.268 z"
   id="path6"
   inkscape:connector-curvature="0"
   style="fill:#ffffff;fill-opacity:1;stroke:none" />
    </g></g></svg>